<svg xmlns="http://www.w3.org/2000/svg" width="393" height="267" fill="none" viewBox="0 0 393 267"><g fill="#444ce7" clip-path="url(#a)"><path d="M276.22 65.85c28.89 30.75-1.37 78.1-42.01 67.18-15.71-4.22-23.91-18.66-35.49-28.58-13.73 11.8-24.01 27.8-43.61 29.88-42.73 4.53-64.93-45.25-31.94-73.02 20.94-17.63 51.22-9.76 65.27 12.25L176 85.84c-4.65-3.96-7.37-9.03-12.75-12.57-23.31-15.34-48.14 13.77-32.81 33.97 9.13 12.03 25.16 12.2 36.37 2.93 16.57-13.71 31.22-33.76 47.72-47.71 18.23-15.41 45.26-14.09 61.68 3.39zm-36.95 3.42c-11.19 1.52-19.83 14.81-28.19 21.54 7.44 6.95 16.23 21 25.86 24.45 21.7 7.79 40.58-14.97 28.16-34.53-5.63-8.87-15.44-12.87-25.83-11.47zM19.6 156.51l16.24 61.25 15.74-61.19 17.75-.06 15.1 58.94 15.9-59.01 19.37.02-24.94 86.68-19.53.02-14.81-58.36-16.18 57.85c-.43.63-1.08.52-1.71.6-3.06.38-12.04.38-15.1 0-.64-.08-1.29.04-1.71-.6L.01 156.71c-.25-1.71 3.1-.27 4.29-.23 5.08.19 10.22-.24 15.29.03zm232.53-.05v46.85l25.74-26.03h18.79l-28.33 30.37 28.33 35.57h-19.95l-22.86-29.2-1.72-.88v30.08h-16.77v-86.76zm92.24 20.82 16.19 45.12 14.46-45.12h17.64c.15 1.76-.63 3.32-1.15 4.92-6.78 20.88-15.6 44.85-23.86 65.21-6.36 15.67-16.38 22.72-33.71 17.23l-.27-11.59c8.18 1.1 17.37-2.75 17.92-11.8l-24.3-60.76-.55-3.21h17.64zm-200.51.74c46.55-5.57 50.06 64.72 6.77 66.92-42.72 2.17-44.33-62.43-6.77-66.92m3.46 14.44c-21.11 2.51-16.98 44.28 6.05 37.29 17.98-5.45 13.45-39.61-6.05-37.29"/><path d="M238.68.42c37.75-5.87 38.77 51.28 1.08 46.65-25.8-3.17-26.2-42.74-1.08-46.65m-91.94.01c34.27-4.64 38.35 43.45 7.3 46.63-32.31 3.31-35.36-42.83-7.3-46.63m158.02 242.79v-86.76h15.9c.2 0 .64-1.03 1.45.29v85.61l-.87.87h-16.48zm-98.89-65.94v9.83c1.85-1.95 2.96-4.36 5.19-6.09 4.42-3.43 10.23-3.92 15.63-3.75v16.2c-6.81-.38-14.12.19-18.04 6.54-.89 1.45-2.78 6.76-2.78 8.21v34.99H189.1v-65.94h16.77z"/></g><defs><clipPath id="a"><path fill="#fff" d="M0 0h392.68v266.49H0z"/></clipPath></defs></svg>