<svg width="393" height="267" viewBox="0 0 393 267" fill="none" xmlns="http://www.w3.org/2000/svg">
<g clip-path="url(#clip0_23_27018)">
<path d="M276.22 65.85C305.11 96.6 274.85 143.95 234.21 133.03C218.5 128.81 210.3 114.37 198.72 104.45C184.99 116.25 174.71 132.25 155.11 134.33C112.38 138.86 90.18 89.08 123.17 61.31C144.11 43.68 174.39 51.55 188.44 73.56L176 85.84C171.35 81.88 168.63 76.81 163.25 73.27C139.94 57.93 115.11 87.04 130.44 107.24C139.57 119.27 155.6 119.44 166.81 110.17C183.38 96.46 198.03 76.41 214.53 62.46C232.76 47.05 259.79 48.37 276.21 65.85H276.22ZM239.27 69.27C228.08 70.79 219.44 84.08 211.08 90.81C218.52 97.76 227.31 111.81 236.94 115.26C258.64 123.05 277.52 100.29 265.1 80.73C259.47 71.86 249.66 67.86 239.27 69.26V69.27Z" fill="#444CE7"/>
<path d="M19.6001 156.51L35.8401 217.76L51.5801 156.57L69.3301 156.51L84.4301 215.45L100.33 156.44L119.7 156.46L94.7601 243.14L75.2301 243.16L60.4201 184.8L44.2401 242.65C43.8101 243.28 43.1601 243.17 42.5301 243.25C39.4701 243.63 30.4901 243.63 27.4301 243.25C26.7901 243.17 26.1401 243.29 25.7201 242.65L0.0100988 156.71C-0.239901 155 3.1101 156.44 4.3001 156.48C9.3801 156.67 14.5201 156.24 19.5901 156.51H19.6001Z" fill="#444CE7"/>
<path d="M252.13 156.46V203.31L277.87 177.28H296.66L268.33 207.65L296.66 243.22H276.71L253.85 214.02L252.13 213.14V243.22H235.36V156.46H252.13Z" fill="#444CE7"/>
<path d="M344.37 177.28L360.56 222.4L375.02 177.28H392.66C392.81 179.04 392.03 180.6 391.51 182.2C384.73 203.08 375.91 227.05 367.65 247.41C361.29 263.08 351.27 270.13 333.94 264.64L333.67 253.05C341.85 254.15 351.04 250.3 351.59 241.25L327.29 180.49L326.74 177.28H344.38H344.37Z" fill="#444CE7"/>
<path d="M143.86 178.02C190.41 172.45 193.92 242.74 150.63 244.94C107.91 247.11 106.3 182.51 143.86 178.02ZM147.32 192.46C126.21 194.97 130.34 236.74 153.37 229.75C171.35 224.3 166.82 190.14 147.32 192.46Z" fill="#444CE7"/>
<path d="M238.68 0.420008C276.43 -5.44999 277.45 51.7 239.76 47.07C213.96 43.9 213.56 4.33001 238.68 0.420008Z" fill="#444CE7"/>
<path d="M146.74 0.430023C181.01 -4.20998 185.09 43.88 154.04 47.06C121.73 50.37 118.68 4.23002 146.74 0.430023Z" fill="#444CE7"/>
<path d="M304.76 243.22V156.46H320.66C320.86 156.46 321.3 155.43 322.11 156.75V242.36L321.24 243.23H304.76V243.22Z" fill="#444CE7"/>
<path d="M205.87 177.28V187.11C207.72 185.16 208.83 182.75 211.06 181.02C215.48 177.59 221.29 177.1 226.69 177.27V193.47C219.88 193.09 212.57 193.66 208.65 200.01C207.76 201.46 205.87 206.77 205.87 208.22V243.21H189.1V177.27H205.87V177.28Z" fill="#444CE7"/>
</g>
<defs>
<clipPath id="clip0_23_27018">
<rect width="392.68" height="266.49" fill="white"/>
</clipPath>
</defs>
</svg>
