<svg xmlns="http://www.w3.org/2000/svg" fill="none" viewBox="0 0 24 24"><g clip-path="url(#a)"><path stroke="#181D27" stroke-linecap="round" stroke-linejoin="round" stroke-width="2" d="M5.19 12.81a19.8 19.8 0 0 1-3.07-8.63A2 2 0 0 1 4.11 2h3a2 2 0 0 1 2 1.72c.127.96.361 1.903.7 2.81a2 2 0 0 1-.45 2.11L8.09 9.91M23 1 1 23m9.68-9.69a16 16 0 0 0 3.41 2.6l1.27-1.27a2 2 0 0 1 2.11-.45c.907.339 1.85.573 2.81.7a2 2 0 0 1 1.72 2v3a2 2 0 0 1-2.18 2 19.8 19.8 0 0 1-8.63-3.07 19.4 19.4 0 0 1-3.33-2.67z"/></g><defs><clipPath id="a"><path fill="#fff" d="M0 0h24v24H0z"/></clipPath></defs></svg>