<svg xmlns="http://www.w3.org/2000/svg" viewBox="0 0 24 24"><g clip-path="url(#a)"><path d="M6.5 11.5a4.5 4.5 0 1 1 0-9.002 4.5 4.5 0 0 1 0 9.002m.5 10a4.5 4.5 0 1 1 0-9 4.5 4.5 0 0 1 0 9m10-10a4.501 4.501 0 0 1-1.722-8.657A4.5 4.5 0 1 1 17 11.5m0 10a4.5 4.5 0 1 1 0-9 4.5 4.5 0 0 1 0 9M6.5 9.5a2.5 2.5 0 1 0 0-5 2.5 2.5 0 0 0 0 5m.5 10a2.5 2.5 0 1 0 0-5 2.5 2.5 0 0 0 0 5m10-10a2.5 2.5 0 1 0 0-5 2.5 2.5 0 0 0 0 5m0 10a2.5 2.5 0 1 0 0-5 2.5 2.5 0 0 0 0 5"/></g><defs><clipPath id="a"><path d="M0 0h24v24H0z"/></clipPath></defs></svg>